<svg width="42" height="55" viewBox="0 0 42 55" fill="none" xmlns="http://www.w3.org/2000/svg">
<path d="M41.687 40.4405V26.9245H33.7579V40.4405C33.7579 44.0505 31.7595 46.887 27.1181 46.887C22.4766 46.887 20.5427 44.2439 20.5427 40.1182V6.59674H12.2913V40.5695C12.2913 48.8854 18.0931 54.5582 27.0536 54.5582C36.7233 54.5582 41.687 48.563 41.687 40.4405Z" fill="black"/>
<rect width="32.2322" height="7.16271" transform="translate(1)" fill="black"/>
<path d="M0.730596 17.6709C0.730596 14.3833 2.9009 12.0625 6.03816 12.0625C8.93906 12.0625 10.916 13.6742 11.1953 16.2312H8.57376C8.27293 15.0279 7.39191 14.4048 6.1456 14.4048C4.46953 14.4048 3.35215 15.6725 3.35215 17.6709C3.35215 19.6693 4.38358 20.9157 6.05965 20.9157C7.37043 20.9157 8.29442 20.271 8.57376 19.1106H11.2168C10.8945 21.5818 8.83162 23.2793 6.05965 23.2793C2.83643 23.2793 0.730596 21.0446 0.730596 17.6709Z" fill="#13BA00"/>
</svg>
