<svg width="42" height="55" viewBox="0 0 42 55" fill="none" xmlns="http://www.w3.org/2000/svg">
<path d="M41.3201 40.5615V27.2682H33.5216V40.5615C33.5216 44.112 31.5562 46.9017 26.9912 46.9017C22.4263 46.9017 20.5242 44.3022 20.5242 40.2445V7.27548H12.4088V40.6883C12.4088 48.8672 18.1149 54.4466 26.9278 54.4466C36.4381 54.4466 41.3201 48.5502 41.3201 40.5615Z" fill="white"/>
<rect width="31.701" height="7.04466" transform="translate(0.320068 0.787415)" fill="white"/>
<path d="M1.03862 18.5462C1.03862 15.3127 3.17316 13.0302 6.25872 13.0302C9.11181 13.0302 11.0561 14.6153 11.3309 17.1302H8.75253C8.45666 15.9467 7.59016 15.3338 6.36439 15.3338C4.71594 15.3338 3.61697 16.5807 3.61697 18.5462C3.61697 20.5116 4.6314 21.7374 6.27986 21.7374C7.56903 21.7374 8.47779 21.1034 8.75253 19.9622H11.352C11.035 22.3926 9.00614 24.0622 6.27986 24.0622C3.10976 24.0622 1.03862 21.8642 1.03862 18.5462Z" fill="#13BA00"/>
</svg>
