<svg width="31" height="31" viewBox="0 0 31 31" fill="none" xmlns="http://www.w3.org/2000/svg">
<path d="M12.4263 4.51039C13.9897 3.6296 14.7714 3.18921 15.6263 3.18921C16.4811 3.18921 17.2629 3.6296 18.8263 4.51039L21.0019 5.73613C22.6248 6.65041 23.4362 7.10755 23.8825 7.87206C24.329 8.63657 24.329 9.569 24.329 11.4339V13.5932C24.329 15.458 24.329 16.3905 23.8825 17.1551C23.4362 17.9195 22.6248 18.3767 21.0019 19.291L18.8263 20.5167C17.2629 21.3975 16.4811 21.8379 15.6263 21.8379C14.7714 21.8379 13.9897 21.3975 12.4263 20.5167L10.2507 19.291C8.62783 18.3767 7.81642 17.9195 7.37001 17.1551C6.92358 16.3905 6.92358 15.458 6.92358 13.5932V11.4339C6.92358 9.569 6.92358 8.63657 7.37001 7.87206C7.81642 7.10755 8.62783 6.65041 10.2507 5.73613L12.4263 4.51039Z" stroke="#0093C1" stroke-width="1.86486" stroke-linejoin="round"/>
<path d="M11.8923 13.3425C11.8923 13.3425 12.8248 13.3425 13.7572 15.0001C13.7572 15.0001 16.7191 10.8559 19.3518 10.0271" stroke="#0093C1" stroke-width="1.86486" stroke-linecap="round" stroke-linejoin="round"/>
<path d="M21.6954 19.3494L22.5286 23.3401C23.0639 25.9041 23.3316 27.1861 22.7817 27.7938C22.232 28.4014 21.277 27.8788 19.3673 26.8334L16.5408 25.2862C16.0895 25.0392 15.8638 24.9157 15.6252 24.9157C15.3867 24.9157 15.161 25.0392 14.7097 25.2862L11.8832 26.8334C9.97341 27.8788 9.01854 28.4014 8.46869 27.7938C7.91885 27.1861 8.18652 25.9041 8.72189 23.3401L9.55512 19.3494" stroke="#0093C1" stroke-width="1.86486" stroke-linecap="round" stroke-linejoin="round"/>
</svg>
