<svg width="30" height="30" viewBox="0 0 30 30" fill="none" xmlns="http://www.w3.org/2000/svg">
<path d="M25.6121 25.616H12.6378C8.74565 25.616 6.79959 25.616 5.59048 24.4069C4.38135 23.1977 4.38135 21.2517 4.38135 17.3596V4.38525" stroke="#FF5677" stroke-width="1.76923" stroke-linecap="round"/>
<path d="M10.2794 12.6423C11.5822 12.6423 12.6384 11.5861 12.6384 10.2833C12.6384 8.98047 11.5822 7.92432 10.2794 7.92432C8.97656 7.92432 7.92041 8.98047 7.92041 10.2833C7.92041 11.5861 8.97656 12.6423 10.2794 12.6423Z" stroke="#FF5677" stroke-width="1.76923"/>
<path d="M14.4082 22.0757C16.0367 22.0757 17.3569 20.7555 17.3569 19.1269C17.3569 17.4984 16.0367 16.1782 14.4082 16.1782C12.7797 16.1782 11.4595 17.4984 11.4595 19.1269C11.4595 20.7555 12.7797 22.0757 14.4082 22.0757Z" stroke="#FF5677" stroke-width="1.76923"/>
<path d="M21.4822 13.8194C23.7622 13.8194 25.6104 11.9711 25.6104 9.69119C25.6104 7.41125 23.7622 5.56299 21.4822 5.56299C19.2023 5.56299 17.354 7.41125 17.354 9.69119C17.354 11.9711 19.2023 13.8194 21.4822 13.8194Z" stroke="#FF5677" stroke-width="1.76923"/>
</svg>
