<svg width="28" height="26" viewBox="0 0 28 26" fill="none" xmlns="http://www.w3.org/2000/svg">
<path d="M0.602935 22.4744L10.6383 1.30891C10.8391 0.88543 11.2658 0.615479 11.7345 0.615479H22.52C23.8263 0.615479 24.2098 2.39666 23.0193 2.93433L15.6176 6.27702C23.0989 16.9935 35.0286 17.6001 21.2792 19.4199C15.1705 20.2284 13.6434 21.49 14.0587 22.6715C14.3503 23.5012 14.0707 25.0814 13.1912 25.0814L1.6075 24.2039C0.758566 24.1395 0.238191 23.2437 0.602935 22.4744Z" fill="#0037FC"/>
<path d="M13.1912 25.0814L1.6075 24.2039C0.758566 24.1395 0.238191 23.2437 0.602935 22.4744L10.6383 1.30891C10.8391 0.88543 11.2658 0.615479 11.7345 0.615479H22.52C23.8263 0.615479 24.2098 2.39666 23.0193 2.93433L15.6176 6.27702M13.1912 25.0814L10.9671 15.1737C10.0235 8.63599 9.63256 -2.29617 15.6176 6.27702M13.1912 25.0814V25.0814C14.0707 25.0814 14.3503 23.5012 14.0587 22.6715C13.6434 21.49 15.1705 20.2284 21.2792 19.4199C35.0286 17.6001 23.0989 16.9935 15.6176 6.27702" stroke="#FF0000" stroke-width="0.404396"/>
</svg>
